<?xml version="1.0" encoding="utf-8"?>
<!-- Generator: Adobe Illustrator 16.0.0, SVG Export Plug-In . SVG Version: 6.00 Build 0)  -->
<!DOCTYPE svg PUBLIC "-//W3C//DTD SVG 1.1//EN" "http://www.w3.org/Graphics/SVG/1.1/DTD/svg11.dtd">
<svg version="1.1" id="avatar" xmlns="http://www.w3.org/2000/svg" xmlns:xlink="http://www.w3.org/1999/xlink" x="0px" y="0px"
	 width="800px" height="800px" viewBox="0 0 800 800" enable-background="new 0 0 800 800" xml:space="preserve">
<g>
	<rect fill="#033520" width="800" height="800"/>
	<path fill="#F8AE10" d="M203.752,411.636c-43.231-43.615-43.082-127.228-15.269-178.664
		c36.444-67.518,135.157-99.108,156.946-170.229c-0.202,83.166-21.181,109.674-84.746,161.699
		C205.394,269.683,179.731,342.558,203.752,411.636z M342.616,268.57c-13.434,45.302,30.118,54.649,39.721,43.038
		c24.082-29.088-30.213-39.963-18.082-81.67C351.893,245.079,346.612,255.097,342.616,268.57z M389.9,351.974
		c-88.722,37.676-102.148-82.256-45.457-140.827C284.38,232.762,233.63,292.653,231.23,357.802
		c-2.748,73.348,51.631,124.621,117.094,144.419c-48.264-72.265,62.98-72.136,33.699-129.912
		c35.6,16.231,42.194,69.496,14.318,94.886c42.947-4.28,58.907-47.045,53.546-62.986c16.209,26.483,17.482,65.804-6.856,89.696
		c76.807-27.9,127.046-112.509,84.56-188.787c-39.025-70.049-132.404-91.446-135.104-182.644
		c-29.267,49.372-22.873,84.467,3.234,135.235C409.181,283.901,429.471,335.179,389.9,351.974z M503.574,229.422
		c-38.367-23.087-46.68-78.467-60.023-117.026c-12.67-36.62-33.538-66.462-62.296-91.615c-1.836-1.709-4.075-3.677-6.869-5.947
		C418.855,69.656,406.204,223.269,503.574,229.422z M362.9,777.743c3.013,4.648,8.12,7.423,13.661,7.423h46.876
		c5.542,0,10.648-2.774,13.659-7.423l14.03-21.664H348.873L362.9,777.743z M266.325,591.777
		c14.928,12.104,25.588,29.048,30.027,47.733c1.171,4.954,5.435,8.379,10.37,8.379h186.559c4.937,0,9.199-3.425,10.366-8.339
		c4.437-18.726,15.097-35.669,30.028-47.773c21.189-17.169,49.661-43.386,68.479-73.098H197.844
		C216.663,548.392,245.134,574.608,266.325,591.777z M478.17,726.665H321.834c-4.546,0-8.249,3.696-8.249,8.242v7.79
		c0,4.546,3.702,8.247,8.249,8.247H478.17c4.541,0,8.244-3.701,8.244-8.247v-7.79C486.414,730.361,482.711,726.665,478.17,726.665z
		 M616.993,297.763c-30.006-54.459-108.664-72.641-124.234-136.398c6.27,59.311,73.62,116.72,85.673,146.079
		c19.891,48.38,20.993,120.694-26.895,153.715C627.626,455.319,647.813,353.691,616.993,297.763z M478.17,694.843H321.834
		c-4.546,0-8.249,3.701-8.249,8.248v7.784c0,4.546,3.702,8.243,8.249,8.243H478.17c4.541,0,8.244-3.697,8.244-8.243v-7.784
		C486.414,698.544,482.711,694.843,478.17,694.843z M308.037,673.592c0,7.558,6.154,13.707,13.711,13.707h156.502
		c7.558,0,13.712-6.149,13.712-13.707v-18.155H308.037V673.592z"/>
</g>
</svg>
