<?xml version="1.0" encoding="utf-8"?>
<!-- Generator: Adobe Illustrator 16.0.0, SVG Export Plug-In . SVG Version: 6.00 Build 0)  -->
<!DOCTYPE svg PUBLIC "-//W3C//DTD SVG 1.1//EN" "http://www.w3.org/Graphics/SVG/1.1/DTD/svg11.dtd">
<svg version="1.1" id="blogger" xmlns="http://www.w3.org/2000/svg" xmlns:xlink="http://www.w3.org/1999/xlink" x="0px" y="0px"
	 width="16px" height="16px" viewBox="0 0 16 16" enable-background="new 0 0 16 16" xml:space="preserve">
<path fill="#F7931D" d="M5.583,6.256c0-0.34,0.275-0.615,0.615-0.615H8.01c0.34,0,0.615,0.275,0.615,0.615S8.35,6.871,8.01,6.871
	H6.199C5.859,6.871,5.583,6.596,5.583,6.256z M9.831,9.242H6.195c-0.321,0-0.582,0.261-0.582,0.581c0,0.321,0.26,0.582,0.582,0.582
	h3.636c0.321,0,0.582-0.261,0.582-0.582C10.413,9.503,10.152,9.242,9.831,9.242z M16,2.399v11.202C16,14.927,14.926,16,13.601,16
	H2.399C1.074,16,0,14.927,0,13.602V2.399C0,1.074,1.074,0,2.399,0h11.201C14.926,0,16,1.074,16,2.399z M12.921,7.486
	c0-0.354-0.286-0.64-0.64-0.64h-0.539H11.73c-0.338,0-0.615-0.262-0.639-0.594l-0.001-0.007c0-1.767-1.432-3.199-3.198-3.199H6.278
	c-1.767,0-3.199,1.433-3.199,3.199v3.508c0,1.767,1.432,3.199,3.199,3.199h3.443c1.767,0,3.198-1.433,3.198-3.199L12.921,7.486z"/>
</svg>
