<?xml version="1.0" encoding="utf-8"?>
<!-- Generator: Adobe Illustrator 16.0.0, SVG Export Plug-In . SVG Version: 6.00 Build 0)  -->
<!DOCTYPE svg PUBLIC "-//W3C//DTD SVG 1.1//EN" "http://www.w3.org/Graphics/SVG/1.1/DTD/svg11.dtd">
<svg version="1.1" id="circuit" xmlns="http://www.w3.org/2000/svg" xmlns:xlink="http://www.w3.org/1999/xlink" x="0px" y="0px"
	 width="16px" height="16px" viewBox="0 0 16 16" enable-background="new 0 0 16 16" xml:space="preserve">
<path fill-rule="evenodd" clip-rule="evenodd" fill="#1C7F5E" d="M7.6,3.01v2.014C6.131,5.22,4.997,6.478,4.997,8
	s1.134,2.779,2.603,2.976v2.014c-1.723-0.137-3.201-1.146-3.991-2.587H2.493C3.37,12.408,5.31,13.842,7.6,13.993V16
	C3.497,15.797,0.203,12.503,0,8.4h3.011C3,8.268,2.994,8.135,2.994,8C2.994,5.371,5.023,3.215,7.6,3.01L7.6,3.01z M10.976,8.4
	c-0.179,1.338-1.237,2.396-2.575,2.575v2.014c1.723-0.137,3.201-1.146,3.991-2.587h1.115c-0.877,2.006-2.817,3.439-5.106,3.591V16
	c4.103-0.203,7.397-3.497,7.6-7.6H10.976z M8.4,0v2.006c2.289,0.151,4.229,1.585,5.106,3.591h-1.115
	c-0.79-1.44-2.269-2.45-3.991-2.587v2.014c1.338,0.179,2.396,1.238,2.575,2.576H16C15.798,3.497,12.503,0.202,8.4,0L8.4,0z M7.588,0
	C3.491,0.208,0.202,3.5,0,7.6h2.007C2.205,4.603,4.603,2.204,7.6,2.006V0C7.596,0,7.592,0,7.588,0L7.588,0z"/>
</svg>
