<?xml version="1.0" encoding="utf-8"?>
<!-- Generator: Adobe Illustrator 16.0.0, SVG Export Plug-In . SVG Version: 6.00 Build 0)  -->
<!DOCTYPE svg PUBLIC "-//W3C//DTD SVG 1.1//EN" "http://www.w3.org/Graphics/SVG/1.1/DTD/svg11.dtd">
<svg version="1.1" id="trashbin" xmlns="http://www.w3.org/2000/svg" xmlns:xlink="http://www.w3.org/1999/xlink" x="0px" y="0px"
	 width="13px" height="13px" viewBox="0 0 13 13" enable-background="new 0 0 13 13" xml:space="preserve">
<g>
	<path fill="#111111" d="M11.106,2.385v1.144l-0.03,0.029c-0.125,0.119-0.31,0.341-0.31,0.44v7.881c0,0.603-0.53,1.092-1.183,1.092
		H3.413c-0.651,0-1.181-0.489-1.181-1.092V3.998c0-0.099-0.184-0.321-0.309-0.44l-0.03-0.029V2.385H11.106z M11.5,1.157v0.808h-10
		V1.157h2.519c0.169-0.658,0.806-1.127,1.548-1.127h1.865c0.742,0,1.381,0.469,1.55,1.127H11.5z M7.885,1.157
		c-0.11-0.118-0.275-0.19-0.451-0.19H5.568c-0.179,0-0.343,0.071-0.452,0.19H7.885z"/>
	<path fill="#C3D5DD" d="M1.991,2.483v1.004c0,0,0.34,0.323,0.34,0.511l0,7.881c0,0.549,0.484,0.994,1.083,0.994h6.171
		c0.601,0,1.085-0.445,1.085-0.994V3.998c0-0.188,0.34-0.511,0.34-0.511V2.483H1.991z M4.851,10.627H4.046V4.631h0.805V10.627z
		 M6.902,10.627H6.098V4.631h0.805V10.627z M8.954,10.627H8.146V4.631h0.808V10.627z M8.904,1.255
		c-0.126-0.64-0.736-1.127-1.472-1.127H5.567c-0.734,0-1.345,0.487-1.47,1.127h-2.5v0.612h9.805V1.255H8.904z M4.935,1.255
		c0.103-0.228,0.348-0.387,0.633-0.387h1.865c0.285,0,0.531,0.16,0.633,0.387H4.935z"/>
</g>
</svg>
