<?xml version="1.0" encoding="utf-8"?>
<!-- Generator: Adobe Illustrator 16.0.0, SVG Export Plug-In . SVG Version: 6.00 Build 0)  -->
<!DOCTYPE svg PUBLIC "-//W3C//DTD SVG 1.1//EN" "http://www.w3.org/Graphics/SVG/1.1/DTD/svg11.dtd">
<svg version="1.1" id="facebook" xmlns="http://www.w3.org/2000/svg" xmlns:xlink="http://www.w3.org/1999/xlink" x="0px" y="0px"
	 width="36px" height="36px" viewBox="0 0 36 36" enable-background="new 0 0 36 36" xml:space="preserve">
<g>
	<path fill="#515A69" d="M36,18c0,9.941-8.059,18-18,18C8.06,36,0,27.941,0,18C0,8.06,8.06,0,18,0C27.941,0,36,8.06,36,18z"/>
	<path fill="#FFFFFF" d="M19.889,29.357h-4.493V18.158h-3.059v-3.644h3.059V11.92c0-3.075,1.353-5.278,5.833-5.278
		c0.945,0,2.436,0.189,2.436,0.189v3.383H22.1c-1.59,0-2.211,0.484-2.211,1.827v2.472h3.717l-0.332,3.646h-3.387v11.198H19.889z"/>
</g>
</svg>
