<?xml version="1.0" encoding="utf-8"?>
<!-- Generator: Adobe Illustrator 16.0.0, SVG Export Plug-In . SVG Version: 6.00 Build 0)  -->
<!DOCTYPE svg PUBLIC "-//W3C//DTD SVG 1.1//EN" "http://www.w3.org/Graphics/SVG/1.1/DTD/svg11.dtd">
<svg version="1.1" id="header" xmlns="http://www.w3.org/2000/svg" xmlns:xlink="http://www.w3.org/1999/xlink" x="0px" y="0px"
	 width="377px" height="80px" viewBox="0 0 377 80" enable-background="new 0 0 377 80" xml:space="preserve">
<a xlink:href="https://oclarimdissidente.blogspot.com/" >
	<path fill="#F8AE10" d="M72.736,57.191c0-0.939,0.761-1.694,1.695-1.694h4.233c0.938,0,1.69,0.769,1.69,1.694v0.93
		c0,0.939-0.755,1.695-1.69,1.695h-4.133v0.705c0,0.285,0.192,0.479,0.479,0.479h5.037v1.568h-5.618
		c-0.938,0-1.695-0.771-1.695-1.692L72.736,57.191L72.736,57.191z M75.014,57.068c-0.285,0-0.479,0.197-0.479,0.479v0.742h3.552
		c0.285,0,0.479-0.193,0.479-0.479V57.55c0-0.284-0.192-0.481-0.479-0.481H75.014L75.014,57.068z M90.978,55.497
		c0.896,0,1.708,0.755,1.708,1.694v5.385h-1.794v-5c0-0.284-0.223-0.482-0.479-0.482h-2.326v5.482H86.29v-5.482h-2.766v5.482h-1.795
		v-7.079H90.978z M100.607,55.497h4.071c0.892,0,1.708,0.755,1.708,1.694v3.688c0,0.893-0.767,1.695-1.708,1.695h-5.866v-9.479
		h1.795V55.497z M104.594,57.576c0-0.284-0.223-0.482-0.483-0.482h-3.502v3.887h3.502c0.266,0,0.483-0.193,0.483-0.479V57.576z
		 M109.458,62.576c-0.903,0-1.696-0.742-1.696-1.695v-5.384h1.794v5c0,0.284,0.198,0.481,0.483,0.481h3.188v-5.481h1.795v7.079
		H109.458z M122.118,58.257c0.929,0,1.69,0.769,1.69,1.695v0.929c0,0.928-0.767,1.695-1.69,1.695h-5.6v-1.571h5.024
		c0.26,0,0.479-0.198,0.479-0.483v-0.223c0-0.283-0.223-0.482-0.479-0.482h-3.453c-0.941,0-1.696-0.754-1.696-1.689v-0.934
		c0-0.928,0.755-1.69,1.696-1.69h5.285v1.565h-4.715c-0.285,0-0.483,0.199-0.483,0.484v0.209c0,0.285,0.198,0.495,0.483,0.495
		H122.118z M132.094,62.576h-5.322c-0.897,0-1.689-0.756-1.689-1.695v-3.688c0-0.903,0.736-1.695,1.689-1.695h5.322v1.598h-4.74
		c-0.26,0-0.479,0.197-0.479,0.481v2.935c0,0.283,0.223,0.481,0.479,0.481h4.74V62.576z M138.962,55.497
		c0.938,0,1.696,0.755,1.696,1.694v5.385h-5.81c-0.938,0-1.69-0.768-1.69-1.695v-0.929c0-0.94,0.767-1.695,1.69-1.695h4.01v-0.704
		c0-0.285-0.192-0.484-0.479-0.484h-4.79V55.5L138.962,55.497L138.962,55.497z M138.861,61.005v-1.188h-3.428
		c-0.26,0-0.479,0.199-0.479,0.482v0.223c0,0.285,0.223,0.483,0.479,0.483H138.861z M146.672,57.191
		c0-0.902,0.743-1.694,1.696-1.694h4.065v-2.401h1.795v9.48h-5.86c-0.904,0-1.696-0.742-1.696-1.695V57.191L146.672,57.191z
		 M148.467,60.497c0,0.284,0.198,0.481,0.479,0.481h3.49V57.09h-3.49c-0.278,0-0.479,0.198-0.479,0.48V60.497z M161.412,55.497
		c0.938,0,1.689,0.755,1.689,1.694v5.385H157.3c-0.941,0-1.696-0.768-1.696-1.695v-0.929c0-0.94,0.771-1.695,1.696-1.695h4.01
		v-0.704c0-0.285-0.198-0.484-0.479-0.484h-4.79V55.5L161.412,55.497L161.412,55.497z M161.312,61.005v-1.188h-3.429
		c-0.26,0-0.482,0.199-0.482,0.482v0.223c0,0.285,0.229,0.483,0.482,0.483H161.312z M174.927,55.497c0.94,0,1.695,0.755,1.695,1.694
		v5.385h-5.81c-0.938,0-1.69-0.768-1.69-1.695v-0.929c0-0.94,0.768-1.695,1.69-1.695h4.016v-0.704c0-0.285-0.198-0.484-0.483-0.484
		h-4.789V55.5L174.927,55.497L174.927,55.497z M174.828,61.005v-1.188h-3.434c-0.26,0-0.479,0.199-0.479,0.482v0.223
		c0,0.285,0.223,0.483,0.479,0.483H174.828z M179.802,62.576c-0.903,0-1.695-0.742-1.695-1.695v-5.384h1.794v5
		c0,0.284,0.198,0.481,0.482,0.481h3.193v-5.481h1.794v7.079H179.802z M193.515,57.094h-2.748v5.482h-1.793v-5.482h-2.735v-1.597
		h2.735V53.9h1.793v1.597h2.748V57.094z M200.271,55.497c0.903,0,1.696,0.755,1.696,1.694v3.688c0,0.902-0.743,1.695-1.696,1.695
		h-4.307c-0.896,0-1.696-0.756-1.696-1.695v-3.688c0-0.896,0.756-1.694,1.696-1.694H200.271z M200.173,57.576
		c0-0.284-0.223-0.482-0.482-0.482h-3.145c-0.26,0-0.482,0.198-0.482,0.482v2.921c0,0.284,0.229,0.481,0.482,0.481h3.145
		c0.266,0,0.482-0.197,0.482-0.481V57.576z M203.229,57.191c0-0.902,0.742-1.694,1.695-1.694h4.072v-2.401h1.794v9.48h-5.866
		c-0.903,0-1.695-0.742-1.695-1.695V57.191L203.229,57.191z M205.024,60.497c0,0.284,0.197,0.481,0.482,0.481h3.49V57.09h-3.49
		c-0.285,0-0.482,0.198-0.482,0.48V60.497z M212.165,57.191c0-0.939,0.755-1.694,1.689-1.694h4.232c0.938,0,1.695,0.769,1.695,1.694
		v0.93c0,0.939-0.758,1.695-1.695,1.695h-4.134v0.705c0,0.285,0.192,0.479,0.479,0.479h5.037v1.568h-5.619
		c-0.938,0-1.689-0.771-1.689-1.692L212.165,57.191L212.165,57.191z M214.442,57.068c-0.279,0-0.479,0.197-0.479,0.479v0.742h3.552
		c0.285,0,0.483-0.193,0.483-0.479V57.55c0-0.284-0.198-0.481-0.483-0.481H214.442L214.442,57.068z M227.82,57.094h-2.741v5.482
		h-1.801v-5.482h-2.729v-1.597h2.729V53.9h1.801v1.597h2.741V57.094z M228.575,57.191c0-0.939,0.755-1.694,1.689-1.694h4.232
		c0.938,0,1.69,0.769,1.69,1.694v0.93c0,0.939-0.755,1.695-1.69,1.695h-4.135v0.705c0,0.285,0.193,0.479,0.479,0.479h5.037v1.568
		h-5.619c-0.938,0-1.694-0.771-1.694-1.692L228.575,57.191L228.575,57.191z M230.853,57.068c-0.285,0-0.479,0.197-0.479,0.479v0.742
		h3.552c0.284,0,0.479-0.193,0.479-0.479V57.55c0-0.284-0.192-0.481-0.479-0.481H230.853L230.853,57.068z M243.29,55.497v1.597
		h-3.44c-0.284,0-0.479,0.198-0.479,0.482v5h-1.801v-5.385c0-0.902,0.743-1.694,1.695-1.694H243.29z M253.525,55.497
		c0.896,0,1.708,0.755,1.708,1.694v5.385h-1.795v-5c0-0.284-0.223-0.482-0.479-0.482h-2.327v5.482h-1.794v-5.482h-2.76v5.482h-1.801
		v-7.079H253.525z M258.513,53.096v1.598h-1.795v-1.598H258.513z M258.513,55.497v7.079h-1.795v-7.079H258.513z M265.864,55.497
		c0.903,0,1.695,0.755,1.695,1.694v5.385h-1.795v-5c0-0.284-0.197-0.482-0.479-0.482h-3.49v5.482H260v-7.079H265.864z
		 M274.737,55.497c0.941,0,1.695,0.755,1.695,1.694v5.385h-5.805c-0.939,0-1.695-0.768-1.695-1.695v-0.929
		c0-0.94,0.771-1.695,1.695-1.695h4.011v-0.704c0-0.285-0.198-0.484-0.483-0.484h-4.783V55.5L274.737,55.497L274.737,55.497z
		 M274.639,61.005v-1.188h-3.429c-0.26,0-0.482,0.199-0.482,0.482v0.223c0,0.285,0.229,0.483,0.482,0.483H274.639z M284.824,62.576
		h-3.106v0.681h0.47c0.532,0,1.461,0.396,1.461,1.437c0,1.088-0.681,1.602-1.729,1.602h-2.091V65.08h1.931
		c0.309,0,0.433-0.188,0.433-0.396c0-0.236-0.136-0.41-0.433-0.41h-1.139V62.58h-1.114c-0.903,0-1.695-0.756-1.695-1.695v-3.688
		c0-0.902,0.743-1.694,1.695-1.694h5.322V57.1h-4.74c-0.26,0-0.483,0.198-0.483,0.482v2.934c0,0.284,0.229,0.482,0.483,0.482h4.74
		L284.824,62.576L284.824,62.576z M291.692,55.497c0.941,0,1.695,0.755,1.695,1.694v5.385h-5.804c-0.94,0-1.696-0.768-1.696-1.695
		v-0.929c0-0.94,0.768-1.695,1.696-1.695h4.01v-0.704c0-0.285-0.198-0.484-0.482-0.484h-4.79V55.5L291.692,55.497L291.692,55.497z
		 M292.015,53.9c-0.384,0.285-0.813,0.52-1.3,0.52c-0.866,0-1.313-0.557-2.203-0.557c-0.532,0-1.015,0.297-1.25,0.582v-1.398
		c0.384-0.298,0.892-0.531,1.287-0.531c0.842,0,1.337,0.568,2.216,0.568c0.532,0,1.015-0.311,1.25-0.596V53.9z M291.594,61.005
		v-1.188h-3.429c-0.266,0-0.482,0.199-0.482,0.482v0.223c0,0.285,0.223,0.483,0.482,0.483H291.594z M300.765,55.497
		c0.903,0,1.695,0.755,1.695,1.694v3.688c0,0.902-0.742,1.695-1.695,1.695h-4.308c-0.896,0-1.695-0.756-1.695-1.695v-3.688
		c0-0.896,0.755-1.694,1.695-1.694H300.765z M300.659,57.576c0-0.284-0.223-0.482-0.479-0.482h-3.144
		c-0.266,0-0.482,0.198-0.482,0.482v2.921c0,0.284,0.223,0.481,0.482,0.481h3.144c0.26,0,0.479-0.197,0.479-0.481V57.576z
		 M310.269,55.497h4.072c0.891,0,1.708,0.755,1.708,1.694v3.688c0,0.893-0.771,1.695-1.708,1.695h-5.866v-9.479h1.794V55.497z
		 M314.255,57.576c0-0.284-0.229-0.482-0.483-0.482h-3.503v3.887h3.503c0.26,0,0.483-0.193,0.483-0.479V57.576z M323.14,55.497
		v1.597h-3.44c-0.278,0-0.479,0.198-0.479,0.482v5h-1.794v-5.385c0-0.902,0.742-1.694,1.689-1.694H323.14z M329.448,55.497
		c0.94,0,1.695,0.755,1.695,1.694v5.385h-5.805c-0.94,0-1.695-0.768-1.695-1.695v-0.929c0-0.94,0.768-1.695,1.695-1.695h4.01v-0.704
		c0-0.285-0.197-0.484-0.482-0.484h-4.789V55.5L329.448,55.497L329.448,55.497z M329.353,61.005v-1.188h-3.428
		c-0.266,0-0.482,0.199-0.482,0.482v0.223c0,0.285,0.223,0.483,0.482,0.483H329.353z M338.239,58.257
		c0.934,0,1.695,0.769,1.695,1.695v0.929c0,0.928-0.768,1.695-1.695,1.695h-5.595v-1.571h5.025c0.26,0,0.479-0.198,0.479-0.483
		v-0.223c0-0.283-0.223-0.482-0.479-0.482h-3.453c-0.94,0-1.696-0.754-1.696-1.689v-0.934c0-0.928,0.756-1.69,1.696-1.69h5.284
		v1.565h-4.721c-0.279,0-0.479,0.199-0.479,0.484v0.209c0,0.285,0.193,0.495,0.479,0.495H338.239z M343.103,53.096v1.598h-1.795
		v-1.598H343.103z M343.103,55.497v7.079h-1.795v-7.079H343.103z M346.382,53.096v9.48h-1.794v-9.48H346.382z M347.756,57.191
		c0-0.939,0.755-1.694,1.689-1.694h4.233c0.938,0,1.694,0.769,1.694,1.694v0.93c0,0.939-0.76,1.695-1.694,1.695h-4.134v0.705
		c0,0.285,0.192,0.479,0.479,0.479h5.037v1.568h-5.619c-0.938,0-1.689-0.771-1.689-1.692L347.756,57.191L347.756,57.191z
		 M350.031,57.068c-0.284,0-0.479,0.197-0.479,0.479v0.742h3.552c0.285,0,0.482-0.193,0.482-0.479V57.55
		c0-0.284-0.197-0.481-0.482-0.481H350.031L350.031,57.068z M358.548,53.096v1.598h-1.795v-1.598H358.548z M358.548,55.497v7.079
		h-1.795v-7.079H358.548z M365.751,55.497v1.597h-3.441c-0.284,0-0.482,0.198-0.482,0.482v5h-1.795v-5.385
		c0-0.902,0.743-1.694,1.696-1.694H365.751z M372.063,55.497c0.94,0,1.695,0.755,1.695,1.694v5.385h-5.811
		c-0.938,0-1.689-0.768-1.689-1.695v-0.929c0-0.94,0.768-1.695,1.689-1.695h4.017v-0.704c0-0.285-0.198-0.484-0.483-0.484h-4.79
		V55.5L372.063,55.497L372.063,55.497z M371.964,61.005v-1.188h-3.435c-0.26,0-0.479,0.199-0.479,0.482v0.223
		c0,0.285,0.223,0.483,0.479,0.483H371.964z M376.629,60.076h-1.145l-0.371-6.163H377L376.629,60.076z M377,62.576h-1.887v-1.598
		H377V62.576z M73.5,42.105V28.505l3.328-3.328h10.417l3.322,3.328v13.603l-3.322,3.326H76.827L73.5,42.105z M85.16,42.077
		l1.476-1.476v-10.59l-1.476-1.476h-6.25l-1.479,1.476v10.59l1.479,1.477L85.16,42.077L85.16,42.077z M101.624,42.105V28.505
		l3.327-3.328h9.896l3.271,3.27v3.097h-3.938v-1.65l-1.36-1.36h-5.781l-1.479,1.476V40.6l1.479,1.479h5.781l1.36-1.358V39.07h3.938
		v3.096l-3.271,3.271h-9.896L101.624,42.105z M120.863,25.178h3.938v16.929h10.127v3.326h-14.063L120.863,25.178L120.863,25.178z
		 M142.767,25.178h3.588l7.407,20.255h-3.993l-1.646-4.483h-7.118l-1.649,4.483h-3.993L142.767,25.178z M147.254,37.708
		l-2.691-7.697h-0.058l-2.604,7.697H147.254z M171.703,38.721v6.712h-3.938v-5.815l-1.736-1.939h-6.308v7.754h-3.936V25.178h12.698
		l3.101,3.125v6.135l-1.969,1.997L171.703,38.721z M159.723,34.438h6.973l1.019-1.013V29.49l-1.019-1.013h-6.973V34.438z
		 M175.465,25.178h3.935v20.255h-3.935V25.178z M183.304,25.178h3.646l6.018,13.08h0.058l6.054-13.08h3.646v20.255h-3.79V33.107
		h-0.058l-4.659,9.491h-2.431l-4.634-9.491h-0.058v12.327h-3.79V25.178H183.304z M214.351,25.178h12.963l3.479,3.473v13.311
		l-3.479,3.472h-12.963V25.178z M225.375,42.077l1.476-1.476v-10.59l-1.476-1.476h-7.089v13.542H225.375z M234.402,25.178h3.938
		v20.255h-3.938V25.178z M241.81,42.309v-2.894h3.877v1.707l0.955,0.955h5.989l0.979-0.983v-3.357l-0.949-0.955h-7.668l-3.125-3.125
		v-5.354l3.125-3.125h9.144l3.125,3.125v2.923h-3.877V29.49l-0.955-0.955H246.7l-0.954,0.955v2.98l0.954,0.955h7.668l3.125,3.125
		v5.701l-3.188,3.183h-9.375L241.81,42.309z M260.241,42.309v-2.894h3.877v1.707l0.949,0.955h5.989l0.983-0.983v-3.357l-0.955-0.955
		h-7.667l-3.125-3.125v-5.354l3.125-3.125h9.144l3.125,3.125v2.923h-3.878V29.49l-0.954-0.955h-5.729l-0.955,0.955v2.98l0.955,0.955
		h7.668l3.125,3.125v5.701l-3.186,3.183h-9.375L260.241,42.309z M279.251,25.178h3.936v20.255h-3.936V25.178z M287.092,25.178
		h12.963l3.472,3.473v13.311l-3.472,3.472h-12.963V25.178z M298.115,42.077l1.479-1.476v-10.59l-1.479-1.476h-7.09v13.542H298.115z
		 M306.993,25.178h14.646v3.328h-10.706v5.122h9.867v3.27h-9.867v5.209h10.706v3.326h-14.646V25.178z M324.531,25.178h3.53
		l9.028,13.746h0.058V25.178h3.79v20.255h-3.529l-9.022-13.721h-0.063v13.721h-3.791V25.178L324.531,25.178z M349.301,28.506h-6.048
		v-3.328h16.024v3.328h-6.048v16.928h-3.93L349.301,28.506L349.301,28.506z M361.599,25.178h14.641v3.328h-10.706v5.122h9.866v3.27
		h-9.866v5.209h10.706v3.326h-14.641V25.178z M3.592,41.209c-4.49-4.53-4.474-13.213-1.586-18.555
		c3.785-7.012,14.036-10.292,16.299-17.679c-0.021,8.637-2.199,11.39-8.801,16.793C3.761,26.467,1.096,34.035,3.592,41.209z
		 M18.011,26.351c-1.395,4.705,3.128,5.675,4.125,4.469c2.501-3.02-3.137-4.15-1.877-8.481
		C18.975,23.912,18.427,24.952,18.011,26.351z M22.924,35.013c-9.214,3.913-10.608-8.542-4.721-14.625
		c-6.238,2.245-11.514,8.464-11.763,15.23c-0.279,7.616,5.362,12.94,12.16,14.998c-5.012-7.505,6.541-7.491,3.5-13.492
		c3.697,1.686,4.382,7.217,1.487,9.854c4.46-0.444,6.118-4.892,5.561-6.542c1.688,2.75,1.815,6.833-0.712,9.314
		c7.979-2.896,13.193-11.684,8.781-19.605c-4.053-7.274-13.75-9.497-14.031-18.968c-3.04,5.127-2.375,8.771,0.336,14.044
		C24.926,27.943,27.034,33.269,22.924,35.013z M34.727,22.286c-3.979-2.398-4.848-8.149-6.229-12.153
		c-1.316-3.803-3.483-6.902-6.476-9.515C21.835,0.44,21.601,0.236,21.311,0C25.929,5.693,24.617,21.646,34.727,22.286z
		 M20.12,79.229C20.431,79.712,20.963,80,21.539,80h4.862c0.576,0,1.106-0.288,1.425-0.771l1.457-2.25h-10.62L20.12,79.229z
		 M10.09,59.916c1.55,1.258,2.657,3.018,3.118,4.958c0.122,0.515,0.563,0.87,1.077,0.87H33.66c0.513,0,0.956-0.355,1.071-0.866
		c0.461-1.944,1.568-3.704,3.118-4.962c2.201-1.781,5.158-4.505,7.112-7.591H2.977C4.931,55.411,7.888,58.134,10.09,59.916z
		 M32.091,73.925H15.853c-0.472,0-0.854,0.384-0.854,0.856v0.809c0,0.473,0.385,0.855,0.854,0.855H32.09
		c0.472,0,0.854-0.385,0.854-0.855v-0.809C32.945,74.309,32.561,73.925,32.091,73.925z M46.508,29.383
		c-3.117-5.656-11.285-7.544-12.902-14.165c0.651,6.159,7.646,12.121,8.897,15.17c2.063,5.024,2.18,12.534-2.793,15.963
		C47.61,45.745,49.709,35.191,46.508,29.383z M32.091,70.62H15.853c-0.472,0-0.854,0.385-0.854,0.856v0.809
		c0,0.472,0.385,0.855,0.854,0.855H32.09c0.472,0,0.854-0.39,0.854-0.855v-0.809C32.945,71.005,32.561,70.62,32.091,70.62z
		 M14.422,68.413c0,0.784,0.639,1.424,1.424,1.424h16.253c0.785,0,1.424-0.64,1.424-1.424v-1.886H14.422V68.413z"/>
</a>
</svg>
