<?xml version="1.0" encoding="utf-8"?>
<!-- Generator: Adobe Illustrator 16.0.0, SVG Export Plug-In . SVG Version: 6.00 Build 0)  -->
<!DOCTYPE svg PUBLIC "-//W3C//DTD SVG 1.1//EN" "http://www.w3.org/Graphics/SVG/1.1/DTD/svg11.dtd">
<svg version="1.1" id="icon" xmlns="http://www.w3.org/2000/svg" xmlns:xlink="http://www.w3.org/1999/xlink" x="0px" y="0px"
	 width="16px" height="16px" viewBox="0 0 16 16" enable-background="new 0 0 16 16" xml:space="preserve">
<path fill="#F8AE10" d="M3.924,8.242C3.026,7.336,3.029,5.599,3.606,4.53c0.757-1.402,2.808-2.058,3.26-3.535
	c-0.004,1.727-0.439,2.278-1.76,3.358C3.958,5.293,3.425,6.807,3.924,8.242z M6.808,5.271c-0.279,0.94,0.625,1.135,0.825,0.894
	c0.5-0.604-0.627-0.83-0.375-1.696C7,4.782,6.891,4.99,6.808,5.271z M7.79,7.003C5.947,7.785,5.668,5.294,6.846,4.078
	C5.599,4.526,4.543,5.771,4.494,7.124c-0.056,1.522,1.073,2.588,2.432,3c-1.002-1.501,1.309-1.498,0.7-2.698
	c0.739,0.337,0.876,1.443,0.297,1.971c0.892-0.088,1.224-0.978,1.112-1.309C9.373,8.639,9.398,9.454,8.893,9.95
	c1.596-0.579,2.641-2.337,1.756-3.921c-0.81-1.455-2.75-1.899-2.806-3.794C7.235,3.261,7.368,3.99,7.91,5.044
	C8.191,5.588,8.611,6.654,7.79,7.003z M10.15,4.457c-0.795-0.479-0.969-1.63-1.246-2.431c-0.262-0.76-0.695-1.38-1.294-1.903
	C7.572,0.088,7.526,0.047,7.468,0C8.392,1.138,8.129,4.329,10.15,4.457z M7.229,15.846C7.292,15.941,7.398,16,7.513,16h0.973
	c0.116,0,0.221-0.059,0.286-0.154l0.291-0.449H6.938L7.229,15.846z M5.224,11.982c0.31,0.252,0.531,0.604,0.624,0.992
	c0.024,0.104,0.112,0.174,0.215,0.174h3.875c0.104,0,0.191-0.07,0.215-0.174c0.094-0.39,0.313-0.74,0.623-0.992
	c0.44-0.355,1.033-0.9,1.425-1.52H3.801C4.192,11.082,4.783,11.627,5.224,11.982z M9.624,14.785H6.376
	c-0.094,0-0.171,0.076-0.171,0.171v0.162c0,0.095,0.077,0.171,0.171,0.171h3.248c0.095,0,0.171-0.077,0.171-0.171v-0.162
	C9.795,14.861,9.719,14.785,9.624,14.785z M12.508,5.876c-0.624-1.131-2.258-1.509-2.58-2.833c0.131,1.232,1.528,2.424,1.778,3.034
	c0.413,1.004,0.437,2.506-0.56,3.192C12.729,9.148,13.146,7.038,12.508,5.876z M9.624,14.124H6.376
	c-0.094,0-0.171,0.077-0.171,0.171v0.162c0,0.096,0.077,0.171,0.171,0.171h3.248c0.095,0,0.171-0.077,0.171-0.171v-0.162
	C9.795,14.201,9.719,14.124,9.624,14.124z M6.09,13.684c0,0.156,0.128,0.284,0.285,0.284h3.251c0.156,0,0.284-0.128,0.284-0.284
	v-0.377H6.09V13.684z"/>
</svg>
