<?xml version="1.0" encoding="utf-8"?>
<!-- Generator: Adobe Illustrator 16.0.0, SVG Export Plug-In . SVG Version: 6.00 Build 0)  -->
<!DOCTYPE svg PUBLIC "-//W3C//DTD SVG 1.1//EN" "http://www.w3.org/Graphics/SVG/1.1/DTD/svg11.dtd">
<svg version="1.1" id="instagram" xmlns="http://www.w3.org/2000/svg" xmlns:xlink="http://www.w3.org/1999/xlink" x="0px" y="0px"
	 width="36px" height="36px" viewBox="0 0 36 36" enable-background="new 0 0 36 36" xml:space="preserve">
<g>
	<circle fill="#BC5E9B" cx="18" cy="18" r="18"/>
	<path fill="#FFFFFF" d="M18,12.197c-3.208-0.002-5.802,2.597-5.8,5.809c0.001,3.198,2.59,5.792,5.791,5.796
		c3.212,0.01,5.816-2.586,5.816-5.796C23.806,14.794,21.213,12.197,18,12.197z M17.961,21.756c-2.046-0.007-3.714-1.694-3.713-3.771
		c0.002-2.071,1.68-3.738,3.77-3.738c2.069,0,3.735,1.687,3.735,3.767C21.753,20.097,20.069,21.758,17.961,21.756z M25.389,11.979
		c-0.003,0.756-0.604,1.352-1.36,1.352c-0.758,0-1.352-0.593-1.36-1.354c-0.003-0.761,0.607-1.369,1.375-1.363
		C24.795,10.618,25.392,11.226,25.389,11.979z M29.132,12.364c-0.151-1.488-0.724-2.805-1.827-3.861
		c-1.166-1.112-2.589-1.603-4.151-1.688c-2.663-0.142-8.979-0.236-11.196,0.126c-2.533,0.414-4.194,1.894-4.895,4.395
		c-0.539,1.923-0.433,10.801-0.119,12.706c0.43,2.602,1.967,4.268,4.548,4.935c1.786,0.461,10.561,0.402,12.53,0.083
		c2.604-0.419,4.278-1.951,4.957-4.526C29.494,22.56,29.315,14.149,29.132,12.364z M27.05,23.676
		c-0.307,1.978-1.614,3.196-3.601,3.416c-1.826,0.2-9.981,0.313-11.673-0.164c-1.622-0.453-2.548-1.565-2.818-3.193
		c-0.258-1.557-0.321-9.34-0.003-11.422c0.298-1.959,1.609-3.184,3.587-3.404c2.003-0.225,9.221-0.249,11.141,0.044
		c1.975,0.302,3.194,1.617,3.412,3.608C27.297,14.418,27.353,21.681,27.05,23.676z"/>
</g>
</svg>
