<?xml version="1.0" encoding="utf-8"?>
<!-- Generator: Adobe Illustrator 16.0.0, SVG Export Plug-In . SVG Version: 6.00 Build 0)  -->
<!DOCTYPE svg PUBLIC "-//W3C//DTD SVG 1.1//EN" "http://www.w3.org/Graphics/SVG/1.1/DTD/svg11.dtd">
<svg version="1.1" id="pencil" xmlns="http://www.w3.org/2000/svg" xmlns:xlink="http://www.w3.org/1999/xlink" x="0px" y="0px"
	 width="18px" height="18px" viewBox="0 0 18 18" enable-background="new 0 0 18 18" xml:space="preserve">
<g>
	<path fill="#FFAEC3" d="M12.107,2.464L1.601,12.972c0.175,0.049,0.352,0.149,0.477,0.301c0.274,0.274,0.375,0.625,0.351,0.977
		l10.73-10.733L12.107,2.464z"/>
	<path fill="#FF9DB2" d="M13.158,3.516L2.427,14.247c0.35-0.023,0.7,0.074,0.976,0.352c0.276,0.275,0.375,0.625,0.352,0.975
		L14.486,4.841L13.158,3.516z"/>
	<path fill="#F18DA2" d="M14.486,4.841L3.753,15.571c0.35-0.023,0.7,0.076,0.976,0.352c0.15,0.15,0.25,0.301,0.3,0.502L15.535,5.917
		L14.486,4.841z"/>
	
		<rect x="13.668" y="1.386" transform="matrix(-0.7069 0.7073 -0.7073 -0.7069 26.902 -3.5215)" fill="#EEF1F6" width="1.025" height="4.854"/>
	<path fill="#FFDF97" d="M1.251,17.599l3.776-1.199c-0.05-0.176-0.149-0.35-0.3-0.5c-0.274-0.275-0.626-0.377-0.976-0.352
		c0.023-0.35-0.075-0.699-0.352-0.975c-0.275-0.275-0.626-0.377-0.976-0.352c0.025-0.351-0.075-0.701-0.351-0.977
		c-0.15-0.15-0.301-0.25-0.477-0.301l-1.198,3.805c0.2,0.049,0.375,0.174,0.525,0.324C1.076,17.224,1.176,17.397,1.251,17.599z"/>
	<path fill="#594667" d="M16.262,5.167l1.475-1.476c0.353-0.351,0.353-0.952,0-1.301l-2.125-2.126c-0.35-0.35-0.95-0.35-1.301,0
		l-1.477,1.476L16.262,5.167z"/>
	<path fill="#594667" d="M1.251,17.599c-0.05-0.199-0.175-0.375-0.326-0.523c-0.15-0.15-0.325-0.25-0.525-0.326L0,17.999
		L1.251,17.599z"/>
</g>
</svg>
