<?xml version="1.0" encoding="utf-8"?>
<!-- Generator: Adobe Illustrator 16.0.0, SVG Export Plug-In . SVG Version: 6.00 Build 0)  -->
<!DOCTYPE svg PUBLIC "-//W3C//DTD SVG 1.1//EN" "http://www.w3.org/Graphics/SVG/1.1/DTD/svg11.dtd">
<svg version="1.1" id="tools" xmlns="http://www.w3.org/2000/svg" xmlns:xlink="http://www.w3.org/1999/xlink" x="0px" y="0px"
	 width="18px" height="18px" viewBox="0 0 18 18" enable-background="new 0 0 18 18" xml:space="preserve">
<g id="hammer">
	<polygon fill="#F2C87E" points="5.03,4.326 3.905,5.455 16.42,18 17.545,16.871 	"/>
	
		<rect x="11.193" y="1.511" transform="matrix(0.7063 -0.7079 0.7079 0.7063 -3.9595 11.1965)" fill="#E3BC77" width="0.644" height="17.72"/>
	<polygon fill="#858585" points="8.175,0 3.889,2.27 5.485,3.87 8.76,0.587 	"/>
	<polygon fill="#666666" points="3.889,2.27 0,6.166 1.599,7.768 5.485,3.87 	"/>
</g>
<g id="wrench">
	<path fill="#D0D0D0" d="M17.611,3.01l-1.066,0.704c-0.201,0.131-0.457,0.157-0.68,0.066l-0.881-0.364
		c-0.273-0.112-0.455-0.382-0.449-0.679l0.01-0.946c0.002-0.242,0.125-0.468,0.326-0.598l1.066-0.703
		c0.189-0.128,0.127-0.421-0.1-0.458c-0.633-0.101-1.301,0.026-1.875,0.404c-1.035,0.68-1.432,1.958-1.041,3.07L3.059,13.33
		c-0.81-0.23-1.72-0.028-2.359,0.606c-0.933,0.929-0.934,2.438-0.001,3.367c0.933,0.931,2.448,0.928,3.382-0.001
		c0.637-0.635,0.84-1.541,0.607-2.35l9.864-9.826c0.74,0.256,1.584,0.185,2.287-0.256c0.602-0.378,0.994-0.955,1.152-1.589
		C18.047,3.059,17.803,2.883,17.611,3.01z M3.969,16.228l-0.576,0.768l-0.898,0.331l-0.94-0.198l-0.678-0.677l-0.201-0.936
		l0.333-0.896l0.771-0.572l0.955-0.07l0.843,0.46l0.461,0.839L3.969,16.228z"/>
	<path fill="#B1B1B1" d="M13.195,4.859c-0.299-0.297-0.783-0.297-1.08,0l-7.639,7.605c-0.297,0.297-0.297,0.778,0.001,1.076
		c0.298,0.297,0.782,0.297,1.079,0.002l7.638-7.607C13.492,5.638,13.492,5.156,13.195,4.859z"/>
</g>
</svg>
