<?xml version="1.0" encoding="utf-8"?>
<!-- Generator: Adobe Illustrator 16.0.0, SVG Export Plug-In . SVG Version: 6.00 Build 0)  -->
<!DOCTYPE svg PUBLIC "-//W3C//DTD SVG 1.1//EN" "http://www.w3.org/Graphics/SVG/1.1/DTD/svg11.dtd">
<svg version="1.1" id="twitter" xmlns="http://www.w3.org/2000/svg" xmlns:xlink="http://www.w3.org/1999/xlink" x="0px" y="0px"
	 width="36px" height="36px" viewBox="0 0 36 36" enable-background="new 0 0 36 36" xml:space="preserve">
<g>
	<circle fill="#3CA5EF" cx="18" cy="18" r="18"/>
	<path fill="#FFFFFF" d="M28.207,11.666c-0.747,0.323-1.525,0.539-2.34,0.628c0.861-0.553,1.466-1.307,1.8-2.283
		c-0.017,0-0.024,0-0.028,0.006c-0.021,0.006-0.037,0.015-0.056,0.025c-0.767,0.441-1.579,0.751-2.442,0.94
		c-0.098,0.021-0.156,0-0.224-0.066c-1.03-0.999-2.269-1.403-3.679-1.173c-1.229,0.199-2.182,0.853-2.849,1.9
		c-0.535,0.836-0.73,1.758-0.613,2.746c0.016,0.147,0.043,0.293,0.066,0.458c-3.511-0.24-6.389-1.71-8.663-4.389
		c-0.536,0.958-0.694,1.976-0.452,3.043c0.247,1.071,0.841,1.91,1.73,2.548c-0.664-0.014-1.278-0.195-1.869-0.506
		c-0.007,0.813,0.195,1.553,0.615,2.23c0.633,1.022,1.547,1.657,2.728,1.931c-0.031,0.011-0.046,0.024-0.06,0.026
		c-0.594,0.146-1.194,0.17-1.802,0.053c0.362,1.273,1.727,2.843,3.909,2.916c-0.625,0.49-1.285,0.873-1.996,1.162
		c-1.34,0.554-2.735,0.742-4.2,0.58c0.047,0.033,0.073,0.052,0.098,0.066c2.062,1.271,4.3,1.875,6.724,1.805
		c0.785-0.022,1.569-0.109,2.339-0.281c2.245-0.492,4.173-1.561,5.771-3.213c0.946-0.978,1.695-2.084,2.271-3.313
		c0.559-1.188,0.924-2.434,1.084-3.739c0.074-0.619,0.102-1.243,0.076-1.865c-0.002-0.063,0.021-0.097,0.07-0.134
		c0.57-0.417,1.084-0.9,1.527-1.448c0.167-0.208,0.322-0.42,0.48-0.634C28.219,11.678,28.214,11.672,28.207,11.666z"/>
</g>
</svg>
