<?xml version="1.0" encoding="utf-8"?>
<!-- Generator: Adobe Illustrator 16.0.0, SVG Export Plug-In . SVG Version: 6.00 Build 0)  -->
<!DOCTYPE svg PUBLIC "-//W3C//DTD SVG 1.1//EN" "http://www.w3.org/Graphics/SVG/1.1/DTD/svg11.dtd">
<svg version="1.1" id="unavailable" xmlns="http://www.w3.org/2000/svg" xmlns:xlink="http://www.w3.org/1999/xlink" x="0px"
	 y="0px" width="260px" height="260px" viewBox="0 0 260 260" enable-background="new 0 0 260 260" xml:space="preserve">
<g>
	<rect fill="#D5D5D5" width="260" height="260"/>
	<path fill="#7F7F7F" d="M33.933,233.889v2.176h-1.044v8.129h1.044v2.176h-4.9v-2.176h1.044v-8.129h-1.044v-2.176H33.933z
		 M49.947,246.369h-2.776V238.9c0-0.805,0.035-1.695,0.104-2.67h-0.069c-0.146,0.766-0.276,1.314-0.392,1.65l-2.924,8.486h-2.297
		l-2.977-8.396c-0.082-0.229-0.212-0.809-0.392-1.74h-0.079c0.076,1.229,0.113,2.309,0.113,3.234v6.902h-2.533v-12.479h4.117
		l2.55,7.395c0.203,0.592,0.351,1.189,0.444,1.785h0.052c0.157-0.689,0.322-1.291,0.496-1.803l2.55-7.379h4.012L49.947,246.369
		L49.947,246.369z M63.759,246.369h-3.063l-0.888-2.777h-4.439l-0.879,2.777h-3.046l4.543-12.48h3.333L63.759,246.369z
		 M59.164,241.434l-1.34-4.195c-0.099-0.313-0.168-0.688-0.209-1.123h-0.07c-0.029,0.367-0.102,0.73-0.217,1.09l-1.358,4.23h3.194
		V241.434z M75.561,245.533c-1.219,0.701-2.733,1.053-4.543,1.053c-2.008,0-3.59-0.555-4.748-1.666
		c-1.157-1.111-1.736-2.643-1.736-4.59c0-1.963,0.632-3.561,1.897-4.797c1.265-1.236,2.947-1.854,5.048-1.854
		c1.323,0,2.489,0.184,3.499,0.549v2.637c-0.963-0.557-2.141-0.836-3.534-0.836c-1.167,0-2.117,0.379-2.851,1.135
		c-0.734,0.758-1.101,1.77-1.101,3.035c0,1.281,0.329,2.273,0.988,2.975c0.659,0.703,1.548,1.053,2.667,1.053
		c0.673,0,1.207-0.094,1.601-0.285v-2.438H70.25v-2.246h5.309v6.275H75.561z M85.474,246.369h-7.485v-12.48h7.197v2.289H80.8v2.775
		h4.082v2.281H80.8v2.854h4.674V246.369z M101.697,246.369h-2.776V238.9c0-0.805,0.035-1.695,0.104-2.67h-0.069
		c-0.145,0.766-0.276,1.314-0.392,1.65l-2.924,8.486h-2.297l-2.977-8.396c-0.082-0.229-0.212-0.809-0.392-1.74h-0.079
		c0.076,1.229,0.113,2.309,0.113,3.234v6.902h-2.532v-12.479h4.116l2.55,7.395c0.203,0.592,0.351,1.189,0.444,1.785h0.052
		c0.157-0.689,0.322-1.291,0.496-1.803l2.55-7.379h4.012L101.697,246.369L101.697,246.369z M113.308,233.889v2.176h-1.045v8.129
		h1.045v2.176h-4.9v-2.176h1.045v-8.129h-1.045v-2.176H113.308z M126.327,246.369h-2.837l-5.144-7.842
		c-0.302-0.459-0.51-0.805-0.627-1.035h-0.035c0.047,0.439,0.07,1.113,0.07,2.018v6.859H115.1v-12.48h3.029l4.952,7.598
		c0.226,0.342,0.435,0.682,0.626,1.02h0.035c-0.047-0.291-0.07-0.861-0.07-1.715v-6.9h2.654L126.327,246.369L126.327,246.369z
		 M129.182,246.369v-12.48h4.419c4.435,0,6.649,2.027,6.649,6.084c0,1.943-0.604,3.494-1.813,4.654
		c-1.209,1.162-2.821,1.742-4.836,1.742H129.182L129.182,246.369z M131.993,236.178v7.912h1.394c1.217,0,2.174-0.367,2.867-1.098
		c0.691-0.732,1.039-1.727,1.039-2.986c0-1.188-0.344-2.125-1.031-2.805c-0.688-0.684-1.652-1.023-2.894-1.023H131.993z
		 M146.18,233.889v2.176h-1.043v8.129h1.043v2.176h-4.9v-2.176h1.046v-8.129h-1.046v-2.176H146.18z M147.396,245.891v-2.785
		c0.506,0.424,1.055,0.74,1.646,0.953c0.592,0.211,1.189,0.316,1.793,0.316c0.354,0,0.662-0.031,0.926-0.094
		c0.266-0.064,0.485-0.154,0.662-0.268c0.178-0.111,0.309-0.246,0.396-0.4c0.087-0.152,0.13-0.318,0.13-0.5
		c0-0.244-0.069-0.461-0.209-0.652s-0.329-0.369-0.57-0.531c-0.239-0.162-0.524-0.318-0.856-0.471
		c-0.33-0.148-0.688-0.303-1.069-0.461c-0.976-0.404-1.702-0.902-2.181-1.488c-0.479-0.586-0.719-1.293-0.719-2.123
		c0-0.65,0.131-1.209,0.393-1.676c0.261-0.467,0.615-0.85,1.064-1.152c0.45-0.301,0.971-0.523,1.563-0.666
		c0.592-0.143,1.22-0.213,1.881-0.213c0.649,0,1.226,0.039,1.728,0.117s0.965,0.199,1.389,0.361v2.602
		c-0.209-0.145-0.438-0.271-0.684-0.383c-0.246-0.109-0.5-0.201-0.763-0.273c-0.261-0.072-0.521-0.127-0.778-0.162
		c-0.259-0.033-0.503-0.051-0.734-0.051c-0.319,0-0.609,0.029-0.871,0.09c-0.262,0.063-0.48,0.146-0.661,0.258
		c-0.181,0.109-0.319,0.242-0.417,0.396c-0.1,0.154-0.148,0.326-0.148,0.518c0,0.209,0.055,0.395,0.166,0.561
		c0.109,0.166,0.266,0.322,0.469,0.473c0.203,0.145,0.451,0.293,0.74,0.436c0.291,0.143,0.618,0.287,0.983,0.439
		c0.5,0.209,0.946,0.43,1.345,0.664c0.396,0.234,0.739,0.502,1.021,0.799c0.285,0.295,0.504,0.633,0.652,1.014
		c0.151,0.379,0.228,0.822,0.228,1.326c0,0.697-0.132,1.281-0.396,1.754c-0.265,0.473-0.623,0.855-1.074,1.148
		c-0.453,0.293-0.979,0.504-1.58,0.631c-0.6,0.129-1.233,0.189-1.901,0.189c-0.685,0-1.335-0.057-1.954-0.174
		C148.387,246.297,147.852,246.123,147.396,245.891z M160.775,242.068v4.301h-2.813v-12.48h4.404c3.145,0,4.717,1.326,4.717,3.977
		c0,1.254-0.451,2.268-1.354,3.041c-0.901,0.775-2.107,1.162-3.617,1.162H160.775L160.775,242.068z M160.775,236.047v3.891h1.104
		c1.496,0,2.245-0.656,2.245-1.967c0-1.283-0.749-1.924-2.245-1.924H160.775L160.775,236.047z M174.188,246.586
		c-1.787,0-3.242-0.582-4.369-1.744c-1.125-1.164-1.688-2.68-1.688-4.549c0-1.973,0.571-3.568,1.716-4.785
		c1.143-1.219,2.657-1.828,4.543-1.828c1.78,0,3.223,0.584,4.32,1.75c1.102,1.166,1.648,2.703,1.648,4.611
		c0,1.961-0.568,3.543-1.709,4.744S176.02,246.586,174.188,246.586z M174.311,236.1c-0.988,0-1.771,0.369-2.352,1.109
		c-0.58,0.738-0.871,1.719-0.871,2.938c0,1.236,0.291,2.213,0.871,2.932c0.58,0.721,1.341,1.08,2.279,1.08
		c0.97,0,1.738-0.35,2.308-1.049c0.567-0.699,0.853-1.67,0.853-2.91c0-1.295-0.274-2.301-0.826-3.02
		C176.02,236.459,175.268,236.1,174.311,236.1z M193.656,246.369h-2.838l-5.145-7.842c-0.301-0.459-0.51-0.805-0.626-1.035h-0.034
		c0.045,0.439,0.068,1.113,0.068,2.018v6.859h-2.654v-12.48h3.028l4.952,7.598c0.228,0.342,0.438,0.682,0.628,1.02h0.034
		c-0.047-0.291-0.07-0.861-0.07-1.715v-6.9h2.654v12.479H193.656z M200.366,233.889v2.176h-1.044v8.129h1.044v2.176h-4.9v-2.176
		h1.044v-8.129h-1.044v-2.176H200.366z M200.749,229.92l-2.726,2.811h-1.983l2.265-2.811H200.749z M212.551,233.889l-4.3,12.48
		h-3.187l-4.246-12.48h3.029l2.602,8.686c0.14,0.469,0.224,0.885,0.252,1.244h0.053c0.041-0.389,0.131-0.814,0.271-1.279
		l2.584-8.648h2.941V233.889z M221.533,246.369h-7.486v-12.48h7.199v2.289h-4.387v2.775h4.08v2.281h-4.08v2.854h4.674V246.369z
		 M230.967,246.369h-7.432v-12.48h2.811v10.201h4.621V246.369z M129.999,13.414C73.895,13.414,28.412,58.896,28.412,115
		c0,56.105,45.482,101.586,101.587,101.586c56.106,0,101.589-45.48,101.589-101.586C231.588,58.896,186.105,13.414,129.999,13.414z
		 M49.999,124.35v-19H209v19H49.999z"/>
</g>
</svg>
