<?xml version="1.0" encoding="utf-8"?>
<!-- Generator: Adobe Illustrator 16.0.0, SVG Export Plug-In . SVG Version: 6.00 Build 0)  -->
<!DOCTYPE svg PUBLIC "-//W3C//DTD SVG 1.1//EN" "http://www.w3.org/Graphics/SVG/1.1/DTD/svg11.dtd">
<svg version="1.1" id="unknown" xmlns="http://www.w3.org/2000/svg" xmlns:xlink="http://www.w3.org/1999/xlink" x="0px" y="0px"
	 width="50px" height="50px" viewBox="0 0 50 50" enable-background="new 0 0 50 50" xml:space="preserve">
<g>
	<rect fill="#F8F2F3" width="50" height="50"/>
	<g>
		<path fill="#7C1311" d="M48,23.442C48,10.792,37.682,0.5,25,0.5C12.317,0.5,2,10.792,2,23.442c0,12.652,10.317,22.945,23,22.945
			c3.238,0,6.376-0.664,9.328-1.974L47.742,49.5L41.77,39.137C45.789,34.866,48,29.307,48,23.442z"/>
		<path fill="#D6172C" d="M40.835,38.734c4.004-4.127,6.211-9.557,6.211-15.292c0-12.126-9.89-21.99-22.046-21.99
			c-12.156,0-22.045,9.864-22.045,21.99c0,12.126,9.889,21.992,22.045,21.992c3.168,0,6.236-0.662,9.113-1.968l0.182-0.083
			l0.188,0.07l11.1,4.21l-4.997-8.67L40.835,38.734z"/>
	</g>
	<path fill="#5B040F" d="M26.392,30.913c0.601,0.53,0.9,1.205,0.9,2.025c0,0.831-0.294,1.517-0.882,2.059
		c-0.601,0.543-1.361,0.812-2.284,0.812c-0.922,0-1.688-0.276-2.3-0.83c-0.612-0.574-0.917-1.257-0.917-2.04
		c0-0.808,0.305-1.482,0.917-2.025c0.611-0.542,1.378-0.812,2.3-0.812C25.037,30.102,25.793,30.371,26.392,30.913z M31.297,13.608
		c-0.388-0.788-0.924-1.44-1.609-1.946c-0.686-0.508-1.49-0.878-2.413-1.116c-0.923-0.234-1.92-0.354-2.992-0.354
		c-1.118,0-2.203,0.133-3.253,0.397c-1.049,0.266-2.017,0.663-2.904,1.193v5.208c0.863-0.761,1.78-1.33,2.75-1.705
		c0.968-0.374,1.902-0.562,2.802-0.562c0.415,0,0.793,0.063,1.133,0.191s0.629,0.301,0.864,0.519
		c0.237,0.219,0.418,0.48,0.545,0.788c0.127,0.305,0.191,0.637,0.191,0.995c0,0.413-0.059,0.792-0.174,1.132
		c-0.115,0.339-0.288,0.671-0.519,0.986s-0.51,0.632-0.838,0.952c-0.329,0.315-0.714,0.659-1.151,1.029
		c-0.416,0.343-0.778,0.694-1.089,1.046c-0.313,0.352-0.572,0.722-0.778,1.107c-0.208,0.387-0.364,0.797-0.468,1.237
		c-0.104,0.437-0.155,0.92-0.155,1.451c0,0.336,0.031,0.689,0.095,1.064c0.063,0.374,0.152,0.71,0.269,1.011h4.549
		c-0.127-0.195-0.228-0.438-0.303-0.726c-0.075-0.289-0.113-0.569-0.113-0.847c0-0.406,0.053-0.765,0.156-1.081
		c0.104-0.319,0.256-0.62,0.458-0.9c0.202-0.281,0.456-0.57,0.762-0.858c0.306-0.285,0.659-0.597,1.063-0.933
		c0.6-0.495,1.131-0.975,1.592-1.443c0.461-0.468,0.848-0.955,1.158-1.463c0.313-0.507,0.549-1.045,0.709-1.615
		c0.162-0.573,0.242-1.209,0.242-1.911C31.875,15.348,31.683,14.4,31.297,13.608z"/>
</g>
</svg>
