<?xml version="1.0" encoding="utf-8"?>
<!-- Generator: Adobe Illustrator 16.0.0, SVG Export Plug-In . SVG Version: 6.00 Build 0)  -->
<!DOCTYPE svg PUBLIC "-//W3C//DTD SVG 1.1//EN" "http://www.w3.org/Graphics/SVG/1.1/DTD/svg11.dtd">
<svg version="1.1" id="youtube" xmlns="http://www.w3.org/2000/svg" xmlns:xlink="http://www.w3.org/1999/xlink" x="0px" y="0px"
	 width="36px" height="36px" viewBox="0 0 36 36" enable-background="new 0 0 36 36" xml:space="preserve">
<g>
	<circle fill="#CF2021" cx="18" cy="18" r="18"/>
	<path fill="#FFFFFF" d="M28.914,12.523c-0.265-0.978-1.033-1.744-2.008-2.007C25.124,10.029,18,10.029,18,10.029
		s-7.127,0-8.909,0.47c-0.957,0.265-1.744,1.054-2.006,2.025C6.616,14.309,6.616,18,6.616,18s0,3.712,0.469,5.479
		c0.262,0.975,1.032,1.744,2.006,2.006c1.8,0.486,8.909,0.486,8.909,0.486s7.125,0,8.908-0.467c0.975-0.264,1.744-1.033,2.008-2.006
		c0.469-1.786,0.469-5.479,0.469-5.479S29.401,14.309,28.914,12.523z M15.729,21.412v-6.825L21.653,18L15.729,21.412z"/>
</g>
</svg>
